# xmcd
#
# Track frame offsets:
#	150
#	14628
#	29207
#	41791
#	55455
#	70028
#	83918
#	97880
#	112013
#	127838
#	143235
#	162484
#
# Disc length: 2359 seconds
# Revision: 0
# Processed by: cddbd v1.5.2PL0 Copyright (c) Steve Scherf et al.
# Submitted via: dBpowerAMP V12.0
#
DISCID=ab09350c
DTITLE=Kira Isabella - Sides
DYEAR=2019
DGENRE=
TTITLE0=Little Girl
TTITLE1=Danger Danger
TTITLE2=Handcuffs
TTITLE3=Stupid Heart
TTITLE4=I Don't Wanna Know
TTITLE5=We Should Be Together
TTITLE6=Holiday
TTITLE7=XGF
TTITLE8=Soon
TTITLE9=Sleep When We're Dead
TTITLE10=Hallelujah
TTITLE11=Little Girl (Acoustic)
EXTD=
EXTT0=
EXTT1=
EXTT2=
EXTT3=
EXTT4=
EXTT5=
EXTT6=
EXTT7=
EXTT8=
EXTT9=
EXTT10=
EXTT11=
PLAYORDER=
